# xmcd CD database file
# Copyright (C) 1993-1996 Ti Kan
#
# Track frame offsets:
# 183
# 23495
# 45258
# 64668
# 83828
# 98515
# 114730
# 133673
# 151335
# 168210
# 187765
# 206180
#
# Disc length: 2997 seconds
# Revision: 0
# Processed by: cddbd v1.4b41PL1 Copyright (c) Steve Scherf et al.
# Submitted via: CDSpectrumPro v3.2.328
#
DISCID=8b0bb30c
DTITLE=Various Artist - Love Songs Are Forever
DYEAR=1900
DGENRE=
TTITLE0=Chicago - Hard To Say I'm Sorry
TTITLE1=Atlantic Starr - Always
TTITLE2=James Ingram with Patti Austin - How Do You Keep The Music Playing?
TTITLE3=Peabo Bryson - If Ever You're In My Arms
TTITLE4=Randy Crawford - One Hello
TTITLE5=Debbie Gibson - Lost In Your Eyes
TTITLE6=Stacy Lattisaw and Johnny Gill - Perfect Combination
TTITLE7=Christopher Cross - Arthur's Theme (Best That You Can Do)
TTITLE8=Alice Cooper - I Never Cry
TTITLE9=Lobo - How Can I Tell Her?
TTITLE10=Michael Franks - Mr. Blue
TTITLE11=Jack Wagner - Too Young
EXTD=
EXTT0=
EXTT1=
EXTT2=
EXTT3=
EXTT4=
EXTT5=
EXTT6=
EXTT7=
EXTT8=
EXTT9=
EXTT10=
EXTT11=
PLAYORDER=
